Coordinates
version=1
nRows=9
nColumns=42
inDegrees=yes

Units are S.I. units (second, meters, Newtons, ...)
If the header above contains a line with 'inDegrees', this indicates whether rotational values are in degrees (yes) or radians (no).

endheader
time	pelvis_tilt	pelvis_list	pelvis_rotation	pelvis_tx	pelvis_ty	pelvis_tz	hip_flexion_r	hip_adduction_r	hip_rotation_r	knee_angle_r	knee_adduction_r	knee_angle_r_beta	ankle_angle_r	subtalar_angle_r	mtp_angle_r	hip_flexion_l	hip_adduction_l	hip_rotation_l	knee_angle_l	knee_adduction_l	knee_angle_l_beta	ankle_angle_l	subtalar_angle_l	mtp_angle_l	lumbar_extension	lumbar_bending	lumbar_rotation	arm_flex_r	arm_add_r	arm_rot_r	elbow_flex_r	pro_sup_r	wrist_flex_r	wrist_dev_r	arm_flex_l	arm_add_l	arm_rot_l	elbow_flex_l	pro_sup_l	wrist_flex_l	wrist_dev_l
      1.44000000	      6.28341686	     -2.36909186	      7.30595102	     -1.01388854	      0.84743536	      0.21473111	     27.86406316	      4.08450073	    -30.13781153	     30.20244238	    -15.63772543	      0.52713206	      6.85821177	     11.89239699	     -7.50573791	    -18.74876421	      1.16297600	     -7.92045679	     29.84345341	    -11.75654868	      0.52086652	     27.41695646	     16.61132752	     -7.50573791	    -26.58124232	      5.96497296	     -2.39615140	     -1.67933227	    -12.13644071	      5.46844552	     28.98487954	     90.00000001	      0.00000000	      0.00000000	     22.31597272	    -18.87050511	      7.21360908	     57.98428211	     90.00000001	      0.00000000	      0.00000000
      1.45000000	      6.14088160	     -2.89105737	      6.90922033	     -1.00008895	      0.84813300	      0.21703993	     27.57329302	      5.37056069	    -28.07213997	     31.30293722	    -15.31751154	      0.54633932	      6.36793953	      7.52830734	     -7.50527872	    -17.72394497	      0.38718415	     -8.25675751	     33.01451696	    -11.88587886	      0.57621202	     24.99469455	     15.10039886	     -7.50527872	    -26.40294440	      6.47391872	     -1.97714796	     -1.09345524	    -12.27262415	      5.35768325	     28.79355630	     90.00000001	      0.00000000	      0.00000000	     21.28563570	    -18.48871619	      6.61408442	     57.56625441	     90.00000001	      0.00000000	      0.00000000
      1.46000000	      6.31619510	     -3.42792470	      6.64574604	     -0.98568116	      0.84966456	      0.21925612	     26.68277257	      6.46976064	    -27.58329161	     31.84981486	    -15.39334358	      0.55588414	      7.08802772	      6.96066517	     -7.50518025	    -16.94495814	     -0.57522826	     -8.76643976	     36.16910714	    -12.03755170	      0.63127001	     22.16182872	     14.28024873	     -7.50518025	    -26.48355256	      7.03646734	     -1.60220084	     -0.58576474	    -12.43370959	      5.34859462	     28.74413626	     90.00000001	      0.00000000	      0.00000000	     20.24872968	    -18.21155210	      6.37467450	     57.00833229	     90.00000001	      0.00000000	      0.00000000
      1.47000000	      6.38031832	     -3.93898455	      6.26237187	     -0.97159480	      0.85133215	      0.22171965	     25.76431658	      7.57138512	    -26.96561774	     32.14972696	    -15.32048563	      0.56111859	      7.77718681	      6.19238813	     -7.50507952	    -15.75771643	     -1.51272977	     -9.43322131	     39.67322983	    -12.20737016	      0.69242849	     19.31787242	     12.92810970	     -7.50507952	    -26.48160614	      7.49375303	     -1.12632505	     -0.01072166	    -12.59681105	      5.36406474	     28.71045752	     90.00000001	      0.00000000	      0.00000000	     19.21193950	    -17.90354272	      6.18973047	     56.29241179	     90.00000001	      0.00000000	      0.00000000
      1.48000000	      6.34446452	     -4.40216082	      5.75737372	     -0.95789947	      0.85313296	      0.22433717	     24.83493201	      8.63777275	    -26.39983924	     32.17524957	    -15.24787027	      0.56156404	      8.36035589	      5.47601135	     -7.50495360	    -14.24935833	     -2.35401816	    -10.15992882	     43.36211217	    -12.42758656	      0.75681163	     16.70572638	     10.83906350	     -7.50495360	    -26.42249639	      7.83775606	     -0.55833812	      0.63887082	    -12.79346843	      5.40395087	     28.74629996	     90.00000001	      0.00000000	      0.00000000	     18.22190458	    -17.56789288	      6.12615912	     55.41509345	     90.00000001	      0.00000000	      0.00000000
      1.49000000	      6.35484117	     -4.66136177	      5.26062264	     -0.94459871	      0.85538766	      0.22685885	     23.68214848	      9.38851802	    -25.89037381	     32.00666416	    -15.03201443	      0.55862167	      9.04074464	      4.94990403	     -7.50459316	    -12.68831569	     -2.89507171	    -10.28400534	     47.07646032	    -12.35387065	      0.82163923	     14.12760477	      7.12945581	     -7.50459316	    -26.48541688	      7.93726899	     -0.02157565	      1.32723931	    -12.96042393	      5.50110576	     28.84838986	     90.00000001	      0.00000000	      0.00000000	     17.35916370	    -17.27438323	      6.21973751	     54.41544062	     90.00000001	      0.00000000	      0.00000000
      1.50000000	      6.45832843	     -5.02606735	      4.77789749	     -0.93109098	      0.85776230	      0.22952026	     22.23280318	     10.28557503	    -25.85333300	     31.34694208	    -15.02804951	      0.54710735	     10.06258081	      5.69305537	     -7.50451398	    -11.06041455	     -3.73767061	    -11.54432949	     50.60495902	    -12.92730148	      0.88322315	     12.40179582	      5.24738348	     -7.50451398	    -26.58631104	      8.11753155	      0.60370769	      1.96200732	    -13.15370768	      5.52978845	     29.06261147	     90.00000001	      0.00000000	      0.00000000	     16.51712283	    -16.99375738	      6.51917255	     53.30455659	     90.00000001	      0.00000000	      0.00000000
      1.51000000	      6.45604089	     -5.06053937	      4.38860627	     -0.91827457	      0.86021023	      0.23171278	     21.01293580	     10.53828113	    -26.55097828	     30.80584496	    -15.21461298	      0.53766342	     11.03747632	      7.73512015	     -7.50422945	     -9.15569997	     -4.02708335	    -11.66115502	     54.24459623	    -12.92319543	      0.94674681	     10.68002724	      0.37726504	     -7.50422945	    -26.67145250	      7.96813664	      1.04660555	      2.65021799	    -13.32625772	      5.68713247	     29.40453129	     90.00000001	      0.00000000	      0.00000000	     15.80640450	    -16.75835152	      6.99205419	     52.06414468	     90.00000001	      0.00000000	      0.00000000
      1.52000000	      6.64877550	     -5.06226229	      4.02762255	     -0.90536904	      0.86306270	      0.23392628	     19.40746827	     10.79814813	    -26.99675674	     30.05470216	    -15.24549663	      0.52455351	     12.23431443	      9.74168369	     -7.50392565	     -7.45299333	     -4.34256696	    -12.26302016	     57.41852403	    -13.21399104	      1.00214230	      9.41412291	     -3.60919245	     -7.50392565	    -26.95050741	      7.74854438	      1.54056079	      3.34432119	    -13.48105738	      5.77529930	     29.75109656	     90.00000001	      0.00000000	      0.00000000	     15.17536009	    -16.56100656	      7.60633378	     50.77646925	     90.00000001	      0.00000000	      0.00000000
